<svg width="30" height="29" viewBox="0 0 30 29" fill="none" xmlns="http://www.w3.org/2000/svg">
<g id="Group">
<g id="Clip path group">
<mask id="mask0_167_6" style="mask-type:luminance" maskUnits="userSpaceOnUse" x="0" y="0" width="30" height="29">
<g id="mageWhatsappFilled0">
<path id="Vector" d="M0.666992 0H29.667V29H0.666992V0Z" fill="white"/>
</g>
</mask>
<g mask="url(#mask0_167_6)">
<g id="Group_2">
<path id="Vector_2" d="M17.8991 0.213867L17.0291 0.0917614C14.4144 -0.285761 11.7463 0.0877248 9.33576 1.16868C6.92523 2.24963 4.87163 3.99351 3.41436 6.19702C1.86386 8.30331 0.93957 10.8046 0.747855 13.413C0.556141 16.0214 1.10479 18.6309 2.33068 20.9412C2.45614 21.1728 2.53424 21.427 2.56045 21.689C2.58665 21.9511 2.56043 22.2157 2.48331 22.4675C1.85752 24.6197 1.27752 26.787 0.666992 29.0612L1.43015 28.8323C3.49068 28.2828 5.5512 27.7333 7.61173 27.2297C8.04664 27.1392 8.4987 27.1818 8.9091 27.3518C10.7578 28.254 12.778 28.7504 14.8343 28.8076C16.8906 28.8647 18.9354 28.4814 20.8313 27.6833C22.7273 26.8852 24.4306 25.6908 25.8269 24.1803C27.2233 22.6697 28.2804 20.8779 28.9273 18.9252C29.5741 16.9725 29.7959 14.904 29.5775 12.8585C29.3592 10.813 28.7058 8.83792 27.6613 7.06574C26.6168 5.29355 25.2053 3.76529 23.5216 2.58351C21.8379 1.40173 19.9208 0.593774 17.8991 0.213867ZM21.7454 20.2391C21.1907 20.7358 20.5142 21.0765 19.785 21.2267C19.0557 21.3768 18.2996 21.331 17.5938 21.0939C14.3961 20.1921 11.6217 18.1857 9.76383 15.4312C9.05436 14.4568 8.48414 13.3883 8.06962 12.2565C7.84503 11.5998 7.80453 10.8942 7.95252 10.2162C8.1005 9.53813 8.43132 8.91355 8.9091 8.41018C9.14169 8.11334 9.45828 7.89342 9.81765 7.77908C10.177 7.66473 10.5625 7.66127 10.9238 7.76913C11.2291 7.84545 11.4428 8.28808 11.7175 8.62387C11.9414 9.25474 12.2009 9.87036 12.4959 10.4707C12.7194 10.7767 12.8128 11.1588 12.7556 11.5334C12.6984 11.908 12.4953 12.2448 12.1907 12.4702C11.5038 13.0807 11.6107 13.5844 12.0991 14.2712C13.1783 15.8273 14.6684 17.0532 16.4033 17.8123C16.8917 18.026 17.258 18.0718 17.5786 17.5681C17.7159 17.3697 17.8991 17.2018 18.0517 17.0186C18.937 15.9044 18.6623 15.9197 20.0665 16.5302C20.5142 16.7184 20.9466 16.9372 21.3638 17.1865C21.7759 17.4307 22.4017 17.6902 22.4933 18.0565C22.5814 18.4539 22.5582 18.8679 22.4263 19.253C22.2943 19.6381 22.0587 19.9793 21.7454 20.2391Z" fill="white"/>
</g>
</g>
</g>
</g>
</svg>
