<svg width="32" height="25" viewBox="0 0 32 25" fill="none" xmlns="http://www.w3.org/2000/svg">
<g id="Group">
<path id="Vector" d="M31.3337 5.42041V19.9334C31.3337 21.1067 30.8854 22.2357 30.0805 23.0894C29.2756 23.9431 28.1748 24.4569 27.0035 24.5257L26.7337 24.5334H5.26699C4.09367 24.5335 2.96467 24.0852 2.11099 23.2802C1.25731 22.4753 0.743494 21.3746 0.674659 20.2033L0.666992 19.9334V5.42041L15.1493 15.0758L15.3272 15.177C15.5368 15.2794 15.767 15.3327 16.0003 15.3327C16.2336 15.3327 16.4638 15.2794 16.6735 15.177L16.8513 15.0758L31.3337 5.42041Z" fill="white"/>
<path id="Vector_2" d="M26.7335 0C28.3895 0 29.8415 0.874 30.6511 2.18807L16.0001 11.9554L1.34912 2.18807C1.73367 1.56373 2.2619 1.04037 2.88977 0.661617C3.51764 0.282867 4.22696 0.0597038 4.95859 0.0107333L5.26679 0H26.7335Z" fill="white"/>
</g>
</svg>
