<svg width="30" height="29" viewBox="0 0 30 29" fill="none" xmlns="http://www.w3.org/2000/svg">
<path id="Vector" d="M23.9042 28.9997C22.6404 28.9997 20.8651 28.5427 18.2066 27.0578C14.9739 25.2452 12.4734 23.5719 9.25817 20.3657C6.15816 17.2682 4.6496 15.2628 2.53825 11.4215C0.15303 7.08442 0.559631 4.811 1.01414 3.83936C1.55542 2.67805 2.35437 1.98346 3.38706 1.29406C3.97362 0.909826 4.59435 0.580453 5.24137 0.310117C5.30612 0.282282 5.36633 0.255742 5.42007 0.231791C5.74056 0.0874362 6.22615 -0.130714 6.84123 0.102325C7.25171 0.256389 7.61817 0.571638 8.19182 1.13805C9.36824 2.29807 10.9759 4.88156 11.5689 6.15032C11.9671 7.00544 12.2306 7.56991 12.2313 8.203C12.2313 8.94419 11.8583 9.51579 11.4058 10.1327C11.321 10.2486 11.2368 10.3593 11.1552 10.4667C10.6625 11.114 10.5544 11.3011 10.6256 11.6351C10.77 12.3064 11.8467 14.3047 13.6162 16.07C15.3857 17.8353 17.3267 18.8438 18.0007 18.9875C18.3491 19.0619 18.5401 18.9493 19.2082 18.4392C19.3041 18.3661 19.4025 18.2903 19.5054 18.2146C20.1956 17.7013 20.7408 17.3381 21.4646 17.3381H21.4685C22.0985 17.3381 22.6378 17.6113 23.5313 18.0618C24.6967 18.6496 27.3584 20.2362 28.5258 21.4137C29.0936 21.9859 29.4102 22.351 29.5649 22.7608C29.798 23.3777 29.5785 23.8612 29.4354 24.1849C29.4115 24.2386 29.3849 24.2975 29.3571 24.3629C29.0846 25.0087 28.7532 25.628 28.3671 26.213C27.6789 27.2422 26.9816 28.0391 25.8175 28.5809C25.2197 28.8637 24.5655 29.0069 23.9042 28.9997Z" fill="white"/>
</svg>
