<svg width="37" height="36" viewBox="0 0 37 36" fill="none" xmlns="http://www.w3.org/2000/svg">
<path id="Vector" d="M18.667 0C17.0146 0 15.4209 0.210938 13.8857 0.632812C12.3506 1.05469 10.915 1.6582 9.5791 2.44336C8.24316 3.22852 7.03027 4.16602 5.94043 5.25586C4.85059 6.3457 3.91309 7.56445 3.12793 8.91211C2.34277 10.2598 1.73926 11.6953 1.31738 13.2188C0.895508 14.7422 0.678711 16.3359 0.666992 18C0.666992 19.6523 0.87793 21.2461 1.2998 22.7812C1.72168 24.3164 2.3252 25.752 3.11035 27.0879C3.89551 28.4238 4.83301 29.6367 5.92285 30.7266C7.0127 31.8164 8.23145 32.7539 9.5791 33.5391C10.9268 34.3242 12.3623 34.9277 13.8857 35.3496C15.4092 35.7715 17.0029 35.9883 18.667 36C20.3193 36 21.9131 35.7891 23.4482 35.3672C24.9834 34.9453 26.4189 34.3418 27.7549 33.5566C29.0908 32.7715 30.3037 31.834 31.3936 30.7441C32.4834 29.6543 33.4209 28.4355 34.2061 27.0879C34.9912 25.7402 35.5947 24.3105 36.0166 22.7988C36.4385 21.2871 36.6553 19.6875 36.667 18C36.667 16.3477 36.4561 14.7539 36.0342 13.2188C35.6123 11.6836 35.0088 10.248 34.2236 8.91211C33.4385 7.57617 32.501 6.36328 31.4111 5.27344C30.3213 4.18359 29.1025 3.24609 27.7549 2.46094C26.4072 1.67578 24.9775 1.07227 23.4658 0.650391C21.9541 0.228516 20.3545 0.0117188 18.667 0ZM18.667 33.75C17.2256 33.75 15.8369 33.5625 14.501 33.1875C13.165 32.8125 11.9111 32.2852 10.7393 31.6055C9.56738 30.9258 8.50098 30.0996 7.54004 29.127C6.5791 28.1543 5.75879 27.0938 5.0791 25.9453C4.39941 24.7969 3.86621 23.543 3.47949 22.1836C3.09277 20.8242 2.90527 19.4297 2.91699 18C2.91699 16.5586 3.10449 15.1699 3.47949 13.834C3.85449 12.498 4.38184 11.2441 5.06152 10.0723C5.74121 8.90039 6.56738 7.83398 7.54004 6.87305C8.5127 5.91211 9.57324 5.0918 10.7217 4.41211C11.8701 3.73242 13.124 3.19922 14.4834 2.8125C15.8428 2.42578 17.2373 2.23828 18.667 2.25C20.1084 2.25 21.4971 2.4375 22.833 2.8125C24.1689 3.1875 25.4229 3.71484 26.5947 4.39453C27.7666 5.07422 28.833 5.90039 29.7939 6.87305C30.7549 7.8457 31.5752 8.90625 32.2549 10.0547C32.9346 11.2031 33.4678 12.457 33.8545 13.8164C34.2412 15.1758 34.4287 16.5703 34.417 18C34.417 19.4414 34.2295 20.8301 33.8545 22.166C33.4795 23.502 32.9521 24.7559 32.2725 25.9277C31.5928 27.0996 30.7666 28.166 29.7939 29.127C28.8213 30.0879 27.7607 30.9082 26.6123 31.5879C25.4639 32.2676 24.21 32.8008 22.8506 33.1875C21.4912 33.5742 20.0967 33.7617 18.667 33.75ZM8.17285 18.2812L7.3291 15.75H6.01074L7.50488 20.25H8.82324L9.66699 17.7188L10.5107 20.25H11.8291L13.3232 15.75H12.0049L11.1611 18.2812L10.3174 15.75H9.0166L8.17285 18.2812ZM16.3291 15.75H15.0107L16.5049 20.25H17.8232L18.667 17.7188L19.5107 20.25H20.8291L22.3232 15.75H21.0049L20.1611 18.2812L19.3174 15.75H18.0166L17.1729 18.2812L16.3291 15.75ZM25.3291 15.75H24.0107L25.5049 20.25H26.8232L27.667 17.7188L28.5107 20.25H29.8291L31.3232 15.75H30.0049L29.1611 18.2812L28.3174 15.75H27.0166L26.1729 18.2812L25.3291 15.75Z" fill="white"/>
</svg>
